{"title":"JFK.1991.DC.1080p.BluRay.x264.DTS-RARBG","uid":11979383,"size":19803037469,"categoryP":"video","categoryS":"hd___movies","magnet":"?xt=urn:btih:88b1c8775c78a24d715e91d9fab71162d61480e8&amp;dn=JFK.1991.DC.1080p.BluRay.x264.DTS-RARBG&amp;tr=udp%3A%2F%2Ftracker.openbittorrent.com%3A80&amp;tr=udp%3A%2F%2Fopen.demonii.com%3A1337&amp;tr=udp%3A%2F%2Ftracker.coppersurfer.tk%3A6969&amp;tr=udp%3A%2F%2Fexodus.desync.com%3A6969","seeders":0,"leechers":1,"uploader":"vickey1992","files":5,"time":1433148197,"description":"Video\nID                                       : 1\nFormat                                   : AVC\nFormat/Info                              : Advanced Video Codec\nFormat profile                           : &lt;a class=&quot;__cf_email__&quot; href=&quot;/cdn-cgi/l/email-protection&quot; data-cfemail=&quot;b1f9d8d6d9f1fd859f80&quot;&gt;[email&amp;#160;protected]&lt;/a&gt;&lt;script data-cfhash='f9e31' type=&quot;text/javascript&quot;&gt;\n/* &lt;![CDATA[ */!function(){try{var t=&quot;currentScript&quot;in document?document.currentScript:function(){for(var t=document.getElementsByTagName(&quot;script&quot;),e=t.length;e--;)if(t[e].getAttribute(&quot;data-cfhash&quot;))return t[e]}();if(t&amp;&amp;t.previousSibling){var e,r,n,i,c=t.previousSibling,a=c.getAttribute(&quot;data-cfemail&quot;);if(a){for(e=&quot;&quot;,r=parseInt(a.substr(0,2),16),n=2;a.length-n;n+=2)i=parseInt(a.substr(n,2),16)^r,e+=String.fromCharCode(i);e=document.createTextNode(e),c.parentNode.replaceChild(e,c)}t.parentNode.removeChild(t);}}catch(u){}}()/* ]]&gt; */&lt;/script&gt;\nFormat settings, CABAC                   : Yes\nFormat settings, ReFrames                : 4 frames\nCodec ID                                 : V_MPEG4/ISO/AVC\nDuration                                 : 3h 25mn\nBit rate                                 : 11.5 Mbps\nWidth                                    : 1 920 pixels\nHeight                                   : 800 pixels\nDisplay aspect ratio                     : 2.40:1\nFrame rate mode                          : Constant\nFrame rate                               : 23.976 fps\nColor space                              : YUV\nChroma subsampling                       : 4:2:0\nBit depth                                : 8 bits\nScan type                                : Progressive\nBits/(Pixel*Frame)                       : 0.312\nStream size                              : 15.9 GiB (86%)\nTitle                                    : JFK.1991.DC.1080p.BluRay.x264.DTS-RARBG\nWriting library                          : x264 core 142 r2479 dd79a61\nEncoding settings                        : cabac=1 / ref=4 / deblock=1:-1:-1 / analyse=0x3:0x113 / me=umh / subme=8 / psy=1 / psy_rd=1.00:0.15 / mixed_ref=1 / me_range=16 / chroma_me=1 / trellis=1 / 8x8dct=1 / cqm=0 / deadzone=21,11 / fast_pskip=1 / chroma_qp_offset=-3 / threads=12 / lookahead_threads=2 / sliced_threads=0 / nr=0 / decimate=1 / interlaced=0 / bluray_compat=0 / constrained_intra=0 / bframes=3 / b_pyramid=2 / b_adapt=2 / b_bias=0 / direct=3 / weightb=1 / open_gop=0 / weightp=2 / keyint=240 / keyint_min=24 / scenecut=40 / intra_refresh=0 / rc_lookahead=50 / rc=abr / mbtree=1 / bitrate=11500 / ratetol=1.0 / qcomp=0.60 / qpmin=0 / qpmax=69 / qpstep=4 / vbv_maxrate=62500 / vbv_bufsize=78125 / nal_hrd=none / filler=0 / ip_ratio=1.40 / aq=1:1.00\nDefault                                  : Yes\nForced                                   : No\nColor primaries                          : BT.709\nTransfer characteristics                 : BT.709\nMatrix coefficients                      : BT.709\n\nAudio\nID                                       : 2\nFormat                                   : DTS\nFormat/Info                              : Digital Theater Systems\nMode                                     : 16\nFormat settings, Endianness              : Big\nCodec ID                                 : A_DTS\nDuration                                 : 3h 25mn\nBit rate mode                            : Constant\nBit rate                                 : 1 509 Kbps\nChannel(s)                               : 6 channels\nChannel positions                        : Front: L C R, Side: L R, LFE\nSampling rate                            : 48.0 KHz\nBit depth                                : 24 bits\nCompression mode                         : Lossy\nStream size                              : 2.17 GiB (12%)\nTitle                                    : JFK.1991.DC.1080p.BluRay.x264.DTS-RARBG\nLanguage                                 : English\nDefault                                  : Yes\nForced                                   : No\n\nText\nID                                       : 3\nFormat                                   : UTF-8\nCodec ID                                 : S_TEXT/UTF8\nCodec ID/Info                            : UTF-8 Plain Text\nLanguage                                 : English\nDefault                                  : Yes\nForced                                   : No\n\nMenu\n00:00:00.000                             : :Chapter 1\n00:01:37.014                             : :Chapter 2\n00:04:23.013                             : :Chapter 3\n00:05:20.987                             : :Chapter 4\n00:07:25.862                             : :Chapter 5\n00:09:38.203                             : :Chapter 6\n00:11:29.606                             : :Chapter 7\n00:12:14.943                             : :Chapter 8\n00:14:12.143                             : :Chapter 9\n00:16:17.310                             : :Chapter 10\n00:18:39.285                             : :Chapter 11\n00:23:04.216                             : :Chapter 12\n00:24:11.992                             : :Chapter 13\n00:26:16.241                             : :Chapter 14\n00:28:34.004                             : :Chapter 15\n00:31:55.956                             : :Chapter 16\n00:33:35.055                             : :Chapter 17\n00:38:10.955                             : :Chapter 18\n00:42:01.811                             : :Chapter 19\n00:44:08.145                             : :Chapter 20\n00:47:13.247                             : :Chapter 21\n00:50:11.175                             : :Chapter 22\n00:52:42.201                             : :Chapter 23\n00:54:36.607                             : :Chapter 24\n00:57:11.094                             : :Chapter 25\n00:59:47.793                             : :Chapter 26\n01:02:28.286                             : :Chapter 27\n01:04:30.700                             : :Chapter 28\n01:06:03.084                             : :Chapter 29\n01:09:04.557                             : :Chapter 30\n01:11:01.090                             : :Chapter 31\n01:13:02.169                             : :Chapter 32\n01:14:49.235                             : :Chapter 33\n01:17:51.542                             : :Chapter 34\n01:19:25.844                             : :Chapter 35\n01:20:33.495                             : :Chapter 36\n01:25:10.355                             : :Chapter 37\n01:27:50.974                             : :Chapter 38\n01:29:44.004                             : :Chapter 39\n01:31:52.841                             : :Chapter 40\n01:34:25.910                             : :Chapter 41\n01:35:43.071                             : :Chapter 42\n01:37:40.897                             : :Chapter 43\n01:38:49.090                             : :Chapter 44\n01:43:18.567                             : :Chapter 45\n01:45:32.451                             : :Chapter 46\n01:48:54.862                             : :Chapter 47\n01:49:57.424                             : :Chapter 48\n01:51:20.799                             : :Chapter 49\n01:53:54.661                             : :Chapter 50\n01:56:55.217                             : :Chapter 51\n02:02:42.063                             : :Chapter 52\n02:07:26.347                             : :Chapter 53\n02:09:34.433                             : :Chapter 54\n02:11:42.978                             : :Chapter 55\n02:16:09.370                             : :Chapter 56\n02:17:11.765                             : :Chapter 57\n02:18:16.955                             : :Chapter 58\n02:19:19.518                             : :Chapter 59\n02:20:59.576                             : :Chapter 60\n02:24:02.008                             : :Chapter 61\n02:27:23.710                             : :Chapter 62\n02:30:31.481                             : :Chapter 63\n02:32:52.288                             : :Chapter 64\n02:35:45.878                             : :Chapter 65\n02:38:52.773                             : :Chapter 66\n02:41:41.442                             : :Chapter 67\n02:43:26.714                             : :Chapter 68\n02:45:41.890                             : :Chapter 69\n02:48:26.763                             : :Chapter 70\n02:49:37.084                             : :Chapter 71\n02:53:20.932                             : :Chapter 72\n02:54:22.202                             : :Chapter 73\n02:56:24.574                             : :Chapter 74\n02:58:27.405                             : :Chapter 75\n03:00:05.795                             : :Chapter 76\n03:03:10.146                             : :Chapter 77\n03:04:32.645                             : :Chapter 78\n03:06:29.053                             : :Chapter 79\n03:08:00.936                             : :Chapter 80\n03:09:20.724                             : :Chapter 81\n03:11:37.403                             : :Chapter 82\n03:13:17.503                             : :Chapter 83\n03:15:19.041                             : :Chapter 84\n03:16:43.875                             : :Chapter 85\n03:17:39.264                             : :Chapter 86\n03:18:43.120                             : :Chapter 87\n03:20:19.174                             : :Chapter 88\n\n\n\nNotes:\nGreetz to all!","torrent":{"xt":"urn:btih:88b1c8775c78a24d715e91d9fab71162d61480e8","amp;dn":"JFK.1991.DC.1080p.BluRay.x264.DTS-RARBG","amp;tr":["udp%3A%2F%2Ftracker.openbittorrent.com%3A80","udp%3A%2F%2Fopen.demonii.com%3A1337","udp%3A%2F%2Ftracker.coppersurfer.tk%3A6969","udp%3A%2F%2Fexodus.desync.com%3A6969"],"infoHash":"88b1c8775c78a24d715e91d9fab71162d61480e8","infoHashBuffer":{"type":"Buffer","data":[136,177,200,119,92,120,162,77,113,94,145,217,250,183,17,98,214,20,128,232]},"announce":[],"urlList":[]}}